<?xml version="1.0" encoding="utf-8"?>
<!-- Generator: Adobe Illustrator 27.3.1, SVG Export Plug-In . SVG Version: 6.00 Build 0)  -->
<svg version="1.1" id="Layer_1" xmlns="http://www.w3.org/2000/svg" xmlns:xlink="http://www.w3.org/1999/xlink" x="0px" y="0px"
	 viewBox="0 0 172.02 72.41" style="enable-background:new 0 0 172.02 72.41;" xml:space="preserve">
<style type="text/css">
	.st0{fill:#FFFFFF;}
</style>
<g>
	<path class="st0" d="M51.13,9.32h11.75L66.81,0H44.98l0,0C43.09,4.41,46.33,9.32,51.13,9.32z"/>
	<path class="st0" d="M69.63,0l-3.99,9.32c0.42,0,11.45,0,11.38,0v0C78.91,4.91,75.68,0,70.88,0H69.63z"/>
	<path class="st0" d="M75.08,21.31h0.5c6.13,0,11.66-3.67,14.03-9.32l0,0H79.06L75.08,21.31z"/>
	<path class="st0" d="M75.89,11.99H49.94c-6.13,0-11.66,3.67-14.03,9.32l0,0h24.63l-21.86,51.1h7.69c2.23,0,4.25-1.33,5.13-3.39
		l20.41-47.71l0,0L75.89,11.99z"/>
	<path class="st0" d="M47.59,45.56l3.92-9.32H38l-2.15,5.11c-0.84,2,0.63,4.21,2.8,4.21H47.59z"/>
	<path class="st0" d="M68.46,41l2-4.75H56.95l-3.92,9.32h8.56C64.58,45.56,67.29,43.76,68.46,41z"/>
</g>
<g>
	<path class="st0" d="M31.57,9.32L31.57,9.32c0.42,0,11.45,0,11.38,0L46.93,0l-1.24,0C39.54,0,33.98,3.67,31.57,9.32z"/>
	<path class="st0" d="M41.81,11.99H15.86c-6.13,0-11.66,3.67-14.03,9.32l0,0h24.63L4.59,72.41h7.69c2.23,0,4.25-1.33,5.13-3.39
		l20.41-47.71l0,0L41.81,11.99z"/>
	<polygon class="st0" points="13.51,45.56 17.43,36.24 3.92,36.24 0,45.56 	"/>
	<path class="st0" d="M34.38,41l2-4.75H22.87l-3.92,9.32h8.56C30.5,45.56,33.21,43.76,34.38,41z"/>
</g>
<g>
	<path class="st0" d="M106.22,41l2-4.75H94.71l-3.92,9.32h8.56C102.34,45.56,105.05,43.76,106.22,41z"/>
	<path class="st0" d="M113.26,11.99l-24.4,57.03c-0.88,2.05-2.9,3.39-5.13,3.39h-7.69l25.85-60.42H113.26z"/>
	<path class="st0" d="M90.45,11.99H79.07L68.89,35.78c-1.98,4.63,1.42,9.78,6.45,9.78h10l3.92-9.32h-7.46
		c-0.82,0-1.38-0.84-1.05-1.6L90.45,11.99z"/>
</g>
<g>
	<path class="st0" d="M123.53,36.24L111.1,65.17h5.72l-3.11,7.24H98.59l15.53-36.17H123.53z"/>
	<path class="st0" d="M147.78,36.24l-10.15,36.17h-9.61l2.29-6.5h-3.36l-3.36,6.5h-9.72l20.33-36.17H147.78z M132.81,59.5
		c1.28-4.09,2.98-9.16,5.09-15.19c-3.93,6.93-6.71,11.99-8.33,15.19H132.81z"/>
	<path class="st0" d="M153.61,36.24h9.38c2.96,0,5.11,0.23,6.44,0.69c1.33,0.46,2.16,1.39,2.49,2.8c0.33,1.41-0.17,3.67-1.51,6.8
		c-0.91,2.11-1.87,3.59-2.89,4.42c-1.02,0.83-2.6,1.47-4.75,1.92c1.96,0.49,3.09,1.31,3.37,2.45c0.28,1.14-0.08,2.89-1.09,5.24
		l-1.44,3.35c-1.05,2.44-2.11,4.25-3.17,5.43c-1.06,1.18-2.3,1.98-3.71,2.41c-1.41,0.43-4,0.65-7.78,0.65h-10.88L153.61,36.24z
		 M154.48,56.1l-4.35,10.12c1.35-0.05,2.28-0.25,2.8-0.63c0.52-0.37,1.1-1.29,1.73-2.75l1.45-3.37c0.66-1.55,0.9-2.49,0.72-2.82
		C156.65,56.33,155.86,56.15,154.48,56.1z M160.35,42.43l-3.45,8.04c0.41-0.01,0.72-0.02,0.95-0.02c0.92,0,1.61-0.23,2.06-0.68
		s1.13-1.75,2.05-3.9c0.48-1.13,0.72-1.92,0.71-2.38c-0.01-0.45-0.16-0.74-0.45-0.86C161.94,42.51,161.32,42.45,160.35,42.43z"/>
	<path class="st0" d="M171.11,65.04l-3.17,7.37h-6.81l3.17-7.37H171.11z"/>
</g>
</svg>
