<svg xmlns="http://www.w3.org/2000/svg" version="1.1" xmlns:xlink="http://www.w3.org/1999/xlink" xmlns:svgjs="http://svgjs.dev/svgjs" viewBox="0 0 800 800" opacity="0.32" width="800" height="800"><g stroke-width="0.5" stroke="#ecedee" fill="none"><circle r="2.5" cx="0" cy="0" fill="#ecedee" stroke="none"></circle><circle r="2.5" cx="50" cy="0" fill="#ecedee" stroke="none"></circle><circle r="2.5" cx="100" cy="0" fill="#ecedee" stroke="none"></circle><circle r="2.5" cx="150" cy="0" fill="#ecedee" stroke="none"></circle><circle r="2.5" cx="200" cy="0" fill="#ecedee" stroke="none"></circle><circle r="2.5" cx="250" cy="0" fill="#ecedee" stroke="none"></circle><circle r="2.5" cx="300" cy="0" fill="#ecedee" stroke="none"></circle><circle r="2.5" cx="350" cy="0" fill="#ecedee" stroke="none"></circle><circle r="2.5" cx="400" cy="0" fill="#ecedee" stroke="none"></circle><circle r="2.5" cx="450" cy="0" fill="#ecedee" stroke="none"></circle><circle r="2.5" cx="500" cy="0" fill="#ecedee" stroke="none"></circle><circle r="2.5" cx="550" cy="0" fill="#ecedee" stroke="none"></circle><circle r="2.5" cx="600" cy="0" fill="#ecedee" stroke="none"></circle><circle r="2.5" cx="650" cy="0" fill="#ecedee" stroke="none"></circle><circle r="2.5" cx="700" cy="0" fill="#ecedee" stroke="none"></circle><circle r="2.5" cx="750" cy="0" fill="#ecedee" stroke="none"></circle><circle r="2.5" cx="800" cy="0" fill="#ecedee" stroke="none"></circle><circle r="2.5" cx="0" cy="50" fill="#ecedee" stroke="none"></circle><circle r="2.5" cx="50" cy="50" fill="none"></circle><circle r="2.5" cx="100" cy="50" fill="#ecedee" stroke="none"></circle><circle r="2.5" cx="150" cy="50" fill="#ecedee" stroke="none"></circle><circle r="2.5" cx="200" cy="50" fill="#ecedee" stroke="none"></circle><circle r="2.5" cx="250" cy="50" fill="#ecedee" stroke="none"></circle><circle r="2.5" cx="300" cy="50" fill="#ecedee" stroke="none"></circle><circle r="2.5" cx="350" cy="50" fill="#ecedee" stroke="none"></circle><circle r="2.5" cx="400" cy="50" fill="#ecedee" stroke="none"></circle><circle r="2.5" cx="450" cy="50" fill="#ecedee" stroke="none"></circle><circle r="2.5" cx="500" cy="50" fill="#ecedee" stroke="none"></circle><circle r="2.5" cx="550" cy="50" fill="#ecedee" stroke="none"></circle><circle r="2.5" cx="600" cy="50" fill="#ecedee" stroke="none"></circle><circle r="2.5" cx="650" cy="50" fill="#ecedee" stroke="none"></circle><circle r="2.5" cx="700" cy="50" fill="none"></circle><circle r="2.5" cx="750" cy="50" fill="none"></circle><circle r="2.5" cx="800" cy="50" fill="#ecedee" stroke="none"></circle><circle r="2.5" cx="0" cy="100" fill="#ecedee" stroke="none"></circle><circle r="2.5" cx="50" cy="100" fill="#ecedee" stroke="none"></circle><circle r="2.5" cx="100" cy="100" fill="none"></circle><circle r="2.5" cx="150" cy="100" fill="#ecedee" stroke="none"></circle><circle r="2.5" cx="200" cy="100" fill="#ecedee" stroke="none"></circle><circle r="2.5" cx="250" cy="100" fill="none"></circle><circle r="2.5" cx="300" cy="100" fill="#ecedee" stroke="none"></circle><circle r="2.5" cx="350" cy="100" fill="none"></circle><circle r="2.5" cx="400" cy="100" fill="#ecedee" stroke="none"></circle><circle r="2.5" cx="450" cy="100" fill="#ecedee" stroke="none"></circle><circle r="2.5" cx="500" cy="100" fill="#ecedee" stroke="none"></circle><circle r="2.5" cx="550" cy="100" fill="#ecedee" stroke="none"></circle><circle r="2.5" cx="600" cy="100" fill="none"></circle><circle r="2.5" cx="650" cy="100" fill="#ecedee" stroke="none"></circle><circle r="2.5" cx="700" cy="100" fill="#ecedee" stroke="none"></circle><circle r="2.5" cx="750" cy="100" fill="#ecedee" stroke="none"></circle><circle r="2.5" cx="800" cy="100" fill="#ecedee" stroke="none"></circle><circle r="2.5" cx="0" cy="150" fill="#ecedee" stroke="none"></circle><circle r="2.5" cx="50" cy="150" fill="#ecedee" stroke="none"></circle><circle r="2.5" cx="100" cy="150" fill="#ecedee" stroke="none"></circle><circle r="2.5" cx="150" cy="150" fill="#ecedee" stroke="none"></circle><circle r="2.5" cx="200" cy="150" fill="none"></circle><circle r="2.5" cx="250" cy="150" fill="none"></circle><circle r="2.5" cx="300" cy="150" fill="none"></circle><circle r="2.5" cx="350" cy="150" fill="#ecedee" stroke="none"></circle><circle r="2.5" cx="400" cy="150" fill="none"></circle><circle r="2.5" cx="450" cy="150" fill="#ecedee" stroke="none"></circle><circle r="2.5" cx="500" cy="150" fill="none"></circle><circle r="2.5" cx="550" cy="150" fill="#ecedee" stroke="none"></circle><circle r="2.5" cx="600" cy="150" fill="none"></circle><circle r="2.5" cx="650" cy="150" fill="#ecedee" stroke="none"></circle><circle r="2.5" cx="700" cy="150" fill="none"></circle><circle r="2.5" cx="750" cy="150" fill="none"></circle><circle r="2.5" cx="800" cy="150" fill="#ecedee" stroke="none"></circle><circle r="2.5" cx="0" cy="200" fill="#ecedee" stroke="none"></circle><circle r="2.5" cx="50" cy="200" fill="none"></circle><circle r="2.5" cx="100" cy="200" fill="none"></circle><circle r="2.5" cx="150" cy="200" fill="#ecedee" stroke="none"></circle><circle r="2.5" cx="200" cy="200" fill="#ecedee" stroke="none"></circle><circle r="2.5" cx="250" cy="200" fill="#ecedee" stroke="none"></circle><circle r="2.5" cx="300" cy="200" fill="#ecedee" stroke="none"></circle><circle r="2.5" cx="350" cy="200" fill="none"></circle><circle r="2.5" cx="400" cy="200" fill="none"></circle><circle r="2.5" cx="450" cy="200" fill="#ecedee" stroke="none"></circle><circle r="2.5" cx="500" cy="200" fill="none"></circle><circle r="2.5" cx="550" cy="200" fill="#ecedee" stroke="none"></circle><circle r="2.5" cx="600" cy="200" fill="#ecedee" stroke="none"></circle><circle r="2.5" cx="650" cy="200" fill="#ecedee" stroke="none"></circle><circle r="2.5" cx="700" cy="200" fill="#ecedee" stroke="none"></circle><circle r="2.5" cx="750" cy="200" fill="#ecedee" stroke="none"></circle><circle r="2.5" cx="800" cy="200" fill="#ecedee" stroke="none"></circle><circle r="2.5" cx="0" cy="250" fill="#ecedee" stroke="none"></circle><circle r="2.5" cx="50" cy="250" fill="none"></circle><circle r="2.5" cx="100" cy="250" fill="#ecedee" stroke="none"></circle><circle r="2.5" cx="150" cy="250" fill="#ecedee" stroke="none"></circle><circle r="2.5" cx="200" cy="250" fill="#ecedee" stroke="none"></circle><circle r="2.5" cx="250" cy="250" fill="#ecedee" stroke="none"></circle><circle r="2.5" cx="300" cy="250" fill="#ecedee" stroke="none"></circle><circle r="2.5" cx="350" cy="250" fill="#ecedee" stroke="none"></circle><circle r="2.5" cx="400" cy="250" fill="#ecedee" stroke="none"></circle><circle r="2.5" cx="450" cy="250" fill="#ecedee" stroke="none"></circle><circle r="2.5" cx="500" cy="250" fill="#ecedee" stroke="none"></circle><circle r="2.5" cx="550" cy="250" fill="none"></circle><circle r="2.5" cx="600" cy="250" fill="#ecedee" stroke="none"></circle><circle r="2.5" cx="650" cy="250" fill="#ecedee" stroke="none"></circle><circle r="2.5" cx="700" cy="250" fill="#ecedee" stroke="none"></circle><circle r="2.5" cx="750" cy="250" fill="none"></circle><circle r="2.5" cx="800" cy="250" fill="#ecedee" stroke="none"></circle><circle r="2.5" cx="0" cy="300" fill="#ecedee" stroke="none"></circle><circle r="2.5" cx="50" cy="300" fill="#ecedee" stroke="none"></circle><circle r="2.5" cx="100" cy="300" fill="none"></circle><circle r="2.5" cx="150" cy="300" fill="none"></circle><circle r="2.5" cx="200" cy="300" fill="#ecedee" stroke="none"></circle><circle r="2.5" cx="250" cy="300" fill="#ecedee" stroke="none"></circle><circle r="2.5" cx="300" cy="300" fill="#ecedee" stroke="none"></circle><circle r="2.5" cx="350" cy="300" fill="none"></circle><circle r="2.5" cx="400" cy="300" fill="#ecedee" stroke="none"></circle><circle r="2.5" cx="450" cy="300" fill="none"></circle><circle r="2.5" cx="500" cy="300" fill="#ecedee" stroke="none"></circle><circle r="2.5" cx="550" cy="300" fill="#ecedee" stroke="none"></circle><circle r="2.5" cx="600" cy="300" fill="#ecedee" stroke="none"></circle><circle r="2.5" cx="650" cy="300" fill="none"></circle><circle r="2.5" cx="700" cy="300" fill="#ecedee" stroke="none"></circle><circle r="2.5" cx="750" cy="300" fill="#ecedee" stroke="none"></circle><circle r="2.5" cx="800" cy="300" fill="#ecedee" stroke="none"></circle><circle r="2.5" cx="0" cy="350" fill="#ecedee" stroke="none"></circle><circle r="2.5" cx="50" cy="350" fill="none"></circle><circle r="2.5" cx="100" cy="350" fill="none"></circle><circle r="2.5" cx="150" cy="350" fill="#ecedee" stroke="none"></circle><circle r="2.5" cx="200" cy="350" fill="#ecedee" stroke="none"></circle><circle r="2.5" cx="250" cy="350" fill="none"></circle><circle r="2.5" cx="300" cy="350" fill="#ecedee" stroke="none"></circle><circle r="2.5" cx="350" cy="350" fill="#ecedee" stroke="none"></circle><circle r="2.5" cx="400" cy="350" fill="#ecedee" stroke="none"></circle><circle r="2.5" cx="450" cy="350" fill="#ecedee" stroke="none"></circle><circle r="2.5" cx="500" cy="350" fill="#ecedee" stroke="none"></circle><circle r="2.5" cx="550" cy="350" fill="#ecedee" stroke="none"></circle><circle r="2.5" cx="600" cy="350" fill="#ecedee" stroke="none"></circle><circle r="2.5" cx="650" cy="350" fill="#ecedee" stroke="none"></circle><circle r="2.5" cx="700" cy="350" fill="#ecedee" stroke="none"></circle><circle r="2.5" cx="750" cy="350" fill="#ecedee" stroke="none"></circle><circle r="2.5" cx="800" cy="350" fill="#ecedee" stroke="none"></circle><circle r="2.5" cx="0" cy="400" fill="#ecedee" stroke="none"></circle><circle r="2.5" cx="50" cy="400" fill="#ecedee" stroke="none"></circle><circle r="2.5" cx="100" cy="400" fill="#ecedee" stroke="none"></circle><circle r="2.5" cx="150" cy="400" fill="#ecedee" stroke="none"></circle><circle r="2.5" cx="200" cy="400" fill="#ecedee" stroke="none"></circle><circle r="2.5" cx="250" cy="400" fill="#ecedee" stroke="none"></circle><circle r="2.5" cx="300" cy="400" fill="#ecedee" stroke="none"></circle><circle r="2.5" cx="350" cy="400" fill="#ecedee" stroke="none"></circle><circle r="2.5" cx="400" cy="400" fill="#ecedee" stroke="none"></circle><circle r="2.5" cx="450" cy="400" fill="#ecedee" stroke="none"></circle><circle r="2.5" cx="500" cy="400" fill="none"></circle><circle r="2.5" cx="550" cy="400" fill="#ecedee" stroke="none"></circle><circle r="2.5" cx="600" cy="400" fill="none"></circle><circle r="2.5" cx="650" cy="400" fill="#ecedee" stroke="none"></circle><circle r="2.5" cx="700" cy="400" fill="none"></circle><circle r="2.5" cx="750" cy="400" fill="#ecedee" stroke="none"></circle><circle r="2.5" cx="800" cy="400" fill="#ecedee" stroke="none"></circle><circle r="2.5" cx="0" cy="450" fill="#ecedee" stroke="none"></circle><circle r="2.5" cx="50" cy="450" fill="none"></circle><circle r="2.5" cx="100" cy="450" fill="#ecedee" stroke="none"></circle><circle r="2.5" cx="150" cy="450" fill="#ecedee" stroke="none"></circle><circle r="2.5" cx="200" cy="450" fill="none"></circle><circle r="2.5" cx="250" cy="450" fill="#ecedee" stroke="none"></circle><circle r="2.5" cx="300" cy="450" fill="none"></circle><circle r="2.5" cx="350" cy="450" fill="#ecedee" stroke="none"></circle><circle r="2.5" cx="400" cy="450" fill="#ecedee" stroke="none"></circle><circle r="2.5" cx="450" cy="450" fill="#ecedee" stroke="none"></circle><circle r="2.5" cx="500" cy="450" fill="#ecedee" stroke="none"></circle><circle r="2.5" cx="550" cy="450" fill="none"></circle><circle r="2.5" cx="600" cy="450" fill="#ecedee" stroke="none"></circle><circle r="2.5" cx="650" cy="450" fill="none"></circle><circle r="2.5" cx="700" cy="450" fill="#ecedee" stroke="none"></circle><circle r="2.5" cx="750" cy="450" fill="#ecedee" stroke="none"></circle><circle r="2.5" cx="800" cy="450" fill="#ecedee" stroke="none"></circle><circle r="2.5" cx="0" cy="500" fill="#ecedee" stroke="none"></circle><circle r="2.5" cx="50" cy="500" fill="#ecedee" stroke="none"></circle><circle r="2.5" cx="100" cy="500" fill="none"></circle><circle r="2.5" cx="150" cy="500" fill="none"></circle><circle r="2.5" cx="200" cy="500" fill="#ecedee" stroke="none"></circle><circle r="2.5" cx="250" cy="500" fill="#ecedee" stroke="none"></circle><circle r="2.5" cx="300" cy="500" fill="none"></circle><circle r="2.5" cx="350" cy="500" fill="#ecedee" stroke="none"></circle><circle r="2.5" cx="400" cy="500" fill="#ecedee" stroke="none"></circle><circle r="2.5" cx="450" cy="500" fill="#ecedee" stroke="none"></circle><circle r="2.5" cx="500" cy="500" fill="#ecedee" stroke="none"></circle><circle r="2.5" cx="550" cy="500" fill="#ecedee" stroke="none"></circle><circle r="2.5" cx="600" cy="500" fill="#ecedee" stroke="none"></circle><circle r="2.5" cx="650" cy="500" fill="#ecedee" stroke="none"></circle><circle r="2.5" cx="700" cy="500" fill="#ecedee" stroke="none"></circle><circle r="2.5" cx="750" cy="500" fill="#ecedee" stroke="none"></circle><circle r="2.5" cx="800" cy="500" fill="#ecedee" stroke="none"></circle><circle r="2.5" cx="0" cy="550" fill="#ecedee" stroke="none"></circle><circle r="2.5" cx="50" cy="550" fill="#ecedee" stroke="none"></circle><circle r="2.5" cx="100" cy="550" fill="#ecedee" stroke="none"></circle><circle r="2.5" cx="150" cy="550" fill="#ecedee" stroke="none"></circle><circle r="2.5" cx="200" cy="550" fill="#ecedee" stroke="none"></circle><circle r="2.5" cx="250" cy="550" fill="none"></circle><circle r="2.5" cx="300" cy="550" fill="#ecedee" stroke="none"></circle><circle r="2.5" cx="350" cy="550" fill="none"></circle><circle r="2.5" cx="400" cy="550" fill="#ecedee" stroke="none"></circle><circle r="2.5" cx="450" cy="550" fill="none"></circle><circle r="2.5" cx="500" cy="550" fill="#ecedee" stroke="none"></circle><circle r="2.5" cx="550" cy="550" fill="none"></circle><circle r="2.5" cx="600" cy="550" fill="#ecedee" stroke="none"></circle><circle r="2.5" cx="650" cy="550" fill="#ecedee" stroke="none"></circle><circle r="2.5" cx="700" cy="550" fill="#ecedee" stroke="none"></circle><circle r="2.5" cx="750" cy="550" fill="#ecedee" stroke="none"></circle><circle r="2.5" cx="800" cy="550" fill="#ecedee" stroke="none"></circle><circle r="2.5" cx="0" cy="600" fill="#ecedee" stroke="none"></circle><circle r="2.5" cx="50" cy="600" fill="#ecedee" stroke="none"></circle><circle r="2.5" cx="100" cy="600" fill="#ecedee" stroke="none"></circle><circle r="2.5" cx="150" cy="600" fill="#ecedee" stroke="none"></circle><circle r="2.5" cx="200" cy="600" fill="#ecedee" stroke="none"></circle><circle r="2.5" cx="250" cy="600" fill="#ecedee" stroke="none"></circle><circle r="2.5" cx="300" cy="600" fill="#ecedee" stroke="none"></circle><circle r="2.5" cx="350" cy="600" fill="#ecedee" stroke="none"></circle><circle r="2.5" cx="400" cy="600" fill="#ecedee" stroke="none"></circle><circle r="2.5" cx="450" cy="600" fill="#ecedee" stroke="none"></circle><circle r="2.5" cx="500" cy="600" fill="#ecedee" stroke="none"></circle><circle r="2.5" cx="550" cy="600" fill="none"></circle><circle r="2.5" cx="600" cy="600" fill="#ecedee" stroke="none"></circle><circle r="2.5" cx="650" cy="600" fill="#ecedee" stroke="none"></circle><circle r="2.5" cx="700" cy="600" fill="none"></circle><circle r="2.5" cx="750" cy="600" fill="#ecedee" stroke="none"></circle><circle r="2.5" cx="800" cy="600" fill="#ecedee" stroke="none"></circle><circle r="2.5" cx="0" cy="650" fill="#ecedee" stroke="none"></circle><circle r="2.5" cx="50" cy="650" fill="#ecedee" stroke="none"></circle><circle r="2.5" cx="100" cy="650" fill="#ecedee" stroke="none"></circle><circle r="2.5" cx="150" cy="650" fill="#ecedee" stroke="none"></circle><circle r="2.5" cx="200" cy="650" fill="none"></circle><circle r="2.5" cx="250" cy="650" fill="none"></circle><circle r="2.5" cx="300" cy="650" fill="#ecedee" stroke="none"></circle><circle r="2.5" cx="350" cy="650" fill="#ecedee" stroke="none"></circle><circle r="2.5" cx="400" cy="650" fill="#ecedee" stroke="none"></circle><circle r="2.5" cx="450" cy="650" fill="#ecedee" stroke="none"></circle><circle r="2.5" cx="500" cy="650" fill="#ecedee" stroke="none"></circle><circle r="2.5" cx="550" cy="650" fill="#ecedee" stroke="none"></circle><circle r="2.5" cx="600" cy="650" fill="#ecedee" stroke="none"></circle><circle r="2.5" cx="650" cy="650" fill="#ecedee" stroke="none"></circle><circle r="2.5" cx="700" cy="650" fill="none"></circle><circle r="2.5" cx="750" cy="650" fill="#ecedee" stroke="none"></circle><circle r="2.5" cx="800" cy="650" fill="#ecedee" stroke="none"></circle><circle r="2.5" cx="0" cy="700" fill="#ecedee" stroke="none"></circle><circle r="2.5" cx="50" cy="700" fill="#ecedee" stroke="none"></circle><circle r="2.5" cx="100" cy="700" fill="none"></circle><circle r="2.5" cx="150" cy="700" fill="#ecedee" stroke="none"></circle><circle r="2.5" cx="200" cy="700" fill="#ecedee" stroke="none"></circle><circle r="2.5" cx="250" cy="700" fill="none"></circle><circle r="2.5" cx="300" cy="700" fill="none"></circle><circle r="2.5" cx="350" cy="700" fill="#ecedee" stroke="none"></circle><circle r="2.5" cx="400" cy="700" fill="#ecedee" stroke="none"></circle><circle r="2.5" cx="450" cy="700" fill="#ecedee" stroke="none"></circle><circle r="2.5" cx="500" cy="700" fill="#ecedee" stroke="none"></circle><circle r="2.5" cx="550" cy="700" fill="none"></circle><circle r="2.5" cx="600" cy="700" fill="#ecedee" stroke="none"></circle><circle r="2.5" cx="650" cy="700" fill="#ecedee" stroke="none"></circle><circle r="2.5" cx="700" cy="700" fill="#ecedee" stroke="none"></circle><circle r="2.5" cx="750" cy="700" fill="#ecedee" stroke="none"></circle><circle r="2.5" cx="800" cy="700" fill="#ecedee" stroke="none"></circle><circle r="2.5" cx="0" cy="750" fill="#ecedee" stroke="none"></circle><circle r="2.5" cx="50" cy="750" fill="#ecedee" stroke="none"></circle><circle r="2.5" cx="100" cy="750" fill="#ecedee" stroke="none"></circle><circle r="2.5" cx="150" cy="750" fill="none"></circle><circle r="2.5" cx="200" cy="750" fill="#ecedee" stroke="none"></circle><circle r="2.5" cx="250" cy="750" fill="#ecedee" stroke="none"></circle><circle r="2.5" cx="300" cy="750" fill="#ecedee" stroke="none"></circle><circle r="2.5" cx="350" cy="750" fill="#ecedee" stroke="none"></circle><circle r="2.5" cx="400" cy="750" fill="#ecedee" stroke="none"></circle><circle r="2.5" cx="450" cy="750" fill="none"></circle><circle r="2.5" cx="500" cy="750" fill="#ecedee" stroke="none"></circle><circle r="2.5" cx="550" cy="750" fill="#ecedee" stroke="none"></circle><circle r="2.5" cx="600" cy="750" fill="#ecedee" stroke="none"></circle><circle r="2.5" cx="650" cy="750" fill="#ecedee" stroke="none"></circle><circle r="2.5" cx="700" cy="750" fill="none"></circle><circle r="2.5" cx="750" cy="750" fill="#ecedee" stroke="none"></circle><circle r="2.5" cx="800" cy="750" fill="#ecedee" stroke="none"></circle><circle r="2.5" cx="0" cy="800" fill="#ecedee" stroke="none"></circle><circle r="2.5" cx="50" cy="800" fill="#ecedee" stroke="none"></circle><circle r="2.5" cx="100" cy="800" fill="#ecedee" stroke="none"></circle><circle r="2.5" cx="150" cy="800" fill="#ecedee" stroke="none"></circle><circle r="2.5" cx="200" cy="800" fill="#ecedee" stroke="none"></circle><circle r="2.5" cx="250" cy="800" fill="#ecedee" stroke="none"></circle><circle r="2.5" cx="300" cy="800" fill="#ecedee" stroke="none"></circle><circle r="2.5" cx="350" cy="800" fill="#ecedee" stroke="none"></circle><circle r="2.5" cx="400" cy="800" fill="#ecedee" stroke="none"></circle><circle r="2.5" cx="450" cy="800" fill="#ecedee" stroke="none"></circle><circle r="2.5" cx="500" cy="800" fill="#ecedee" stroke="none"></circle><circle r="2.5" cx="550" cy="800" fill="#ecedee" stroke="none"></circle><circle r="2.5" cx="600" cy="800" fill="#ecedee" stroke="none"></circle><circle r="2.5" cx="650" cy="800" fill="#ecedee" stroke="none"></circle><circle r="2.5" cx="700" cy="800" fill="#ecedee" stroke="none"></circle><circle r="2.5" cx="750" cy="800" fill="#ecedee" stroke="none"></circle><circle r="2.5" cx="800" cy="800" fill="#ecedee" stroke="none"></circle></g></svg>