<?xml version="1.0" encoding="utf-8"?>
<!-- Generator: Adobe Illustrator 26.0.2, SVG Export Plug-In . SVG Version: 6.00 Build 0)  -->
<svg version="1.1" id="レイヤー_1" xmlns="http://www.w3.org/2000/svg" xmlns:xlink="http://www.w3.org/1999/xlink" x="0px"
	 y="0px" viewBox="0 0 2088 576" style="enable-background:new 0 0 2088 576;" xml:space="preserve">
<style type="text/css">
	.st0{fill:#EA580C;}
	.st1{fill:#0D0D0D;}
</style>
<polygon class="st0" points="1413,315 1413,297 1710,0 1710,18 "/>
<polygon class="st0" points="1026,234 1026,216 1134,108 1134,126 "/>
<polygon class="st0" points="1989,423 1989,405 2088,306 2088,324 "/>
<polygon class="st0" points="621,135 621,117 666,72 666,90 "/>
<polygon class="st0" points="720,540 702,540 819,423 819,441 "/>
<polygon class="st0" points="1152,576 1134,576 1296,414 1296,432 "/>
<g>
	<polygon class="st1" points="1890,387 1890,216 1782,324 1782,342 1818,306 1818,459 	"/>
	<polygon class="st1" points="684,234 630,180 594,216 594,162 612,144 612,126 522,216 522,468 504,486 504,504 594,414 594,306 
		630,270 630,468 702,396 702,306 738,270 738,486 810,414 810,252 738,180 	"/>
	<polygon class="st1" points="1296,396 1296,315 1332,279 1332,396 1404,324 1404,252 1332,180 1296,216 1296,126 1332,90 1332,72 
		1224,180 1224,360 1143,441 837,441 828,450 1242,450 	"/>
	<polygon class="st1" points="1800,180 1764,216 1764,126 1692,198 1692,414 1602,504 1620,504 1764,360 1764,306 1800,270 	"/>
	<polygon class="st1" points="1890,126 1818,198 1818,252 1890,180 	"/>
	<polygon class="st1" points="900,306 936,270 936,342 846,432 936,432 1008,360 1008,252 936,180 900,216 900,108 828,180 828,432 
		900,360 	"/>
	<path class="st1" d="M2016,126l-36,36v-36l-72,72v288l-36,36v18l108-108v-72h36l72-72v-90L2016,126z M2016,270l-36,36v-54l36-36
		V270z"/>
	<polygon class="st1" points="1116,414 1134,396 1134,432 1206,360 1206,180 1134,252 1134,306 1098,342 1098,270 1188,180 
		1098,180 1026,252 1026,432 1098,432 	"/>
	<polygon class="st1" points="1593,153 1206,540 1224,540 1260,504 1350,504 1593,261 	"/>
	<polygon class="st1" points="1602,486 1674,414 1674,72 1602,144 1602,342 1530,342 1368,504 1386,504 1476,414 1602,414 	"/>
</g>
<g>
	<polygon class="st1" points="153,189 0,342 0,378 72,450 126,450 162,414 162,396 126,360 225,261 	"/>
	<polygon class="st1" points="315,189 468,342 468,378 396,450 342,450 306,414 306,396 342,360 243,261 	"/>
	<polygon class="st1" points="306,180 243,117 225,117 162,180 234,252 	"/>
	<polygon class="st0" points="252,288 216,288 180,324 234,378 288,324 	"/>
</g>
</svg>
